<?xml version="1.0" encoding="UTF-8" standalone="no"?><!DOCTYPE svg PUBLIC "-//W3C//DTD SVG 1.1//EN" "http://www.w3.org/Graphics/SVG/1.1/DTD/svg11.dtd"><svg width="100%" height="100%" viewBox="0 0 418 416" version="1.1" xmlns="http://www.w3.org/2000/svg" xmlns:xlink="http://www.w3.org/1999/xlink" xml:space="preserve" xmlns:serif="http://www.serif.com/" style="fill-rule:evenodd;clip-rule:evenodd;stroke-linejoin:round;stroke-miterlimit:2;"><path d="M209,376.75c-93.042,0 -168.75,-75.708 -168.75,-168.75c0,-93.042 75.708,-168.75 168.75,-168.75c93.042,-0 168.75,75.708 168.75,168.75c0,93.042 -75.708,168.75 -168.75,168.75Zm0,-300c-72.375,-0 -131.25,58.875 -131.25,131.25c0,72.375 58.875,131.25 131.25,131.25c72.375,0 131.25,-58.875 131.25,-131.25c0,-72.375 -58.875,-131.25 -131.25,-131.25Z" style="fill-rule:nonzero;"/><g><path d="M187.917,195.792c-2.792,1.416 -9.084,2.916 -17.292,2.916c-23.292,0 -35.292,-14.5 -35.292,-33.708c0,-23 16.417,-35.792 36.792,-35.792c7.917,0 13.917,1.584 16.583,3l-3.083,12.084c-3.083,-1.292 -7.417,-2.5 -12.792,-2.5c-12.083,-0 -21.5,7.291 -21.5,22.291c0,13.5 8,22 21.584,22c4.583,0 9.708,-1 12.708,-2.208l2.292,11.917Z" style="fill-rule:nonzero;"/><path d="M197.917,131.208c4.916,-0.791 12.208,-1.416 20.291,-1.416c10,-0 17,1.5 21.792,5.291c4,3.209 6.208,7.917 6.208,14.084c0,8.583 -6.083,14.5 -11.916,16.583l-0,0.292c4.708,1.916 7.291,6.416 9,12.583c2.083,7.583 4.208,16.417 5.5,19l-15.584,0c-1.083,-1.917 -2.708,-7.417 -4.708,-15.708c-1.792,-8.417 -4.708,-10.709 -10.917,-10.792l-4.583,0l0,26.5l-15.083,0l-0,-66.5l-0,0.083Zm15.083,29l6,0c7.583,0 12.083,-3.791 12.083,-9.708c0,-6.208 -4.208,-9.292 -11.208,-9.417c-3.708,0 -5.792,0.292 -6.917,0.5l0,18.584l0.042,0.041Z" style="fill-rule:nonzero;"/><rect x="257.208" y="130.292" width="15.292" height="67.417" style="fill-rule:nonzero;"/></g><g><path d="M158.958,280.292c1.917,0.208 3.584,0.208 6.584,-0c4.583,-0.292 9.291,-1.584 12.791,-4c4.209,-2.917 7,-7.084 8.209,-12l-0.292,-0.084c-2.917,3 -7.083,4.709 -13,4.709c-11,-0 -20.292,-7.709 -20.292,-20.292c0,-12.583 10.209,-23.417 24.5,-23.417c16.709,0 24.584,12.792 24.584,28c-0,13.5 -4.292,23.417 -11.417,29.917c-6.208,5.583 -14.708,8.708 -24.792,9.083c-2.583,0.209 -5.208,0.084 -6.916,0l-0,-11.916l0.041,-0Zm9.209,-32.625c-0,5.583 3,10.416 9.208,10.416c4.083,0 7,-2 8.417,-4.291c0.5,-0.917 0.791,-1.917 0.791,-3.792c0,-6.917 -2.583,-13.708 -9.5,-13.708c-5.208,-0 -9,4.583 -8.916,11.416l-0,-0.041Z" style="fill-rule:nonzero;"/><path d="M257.667,258.5c-0,20.125 -8.084,33.917 -24.709,33.917c-16.625,-0 -24.208,-15.084 -24.291,-33.5c-0,-18.792 8,-33.709 24.791,-33.709c16.792,0 24.209,15.5 24.209,33.292Zm-33.709,0.375c-0.083,14.917 3.5,22 9.417,22c5.917,0 9.083,-7.417 9.083,-22.208c0,-14.792 -3.083,-22 -9.208,-22c-5.583,-0 -9.417,7.083 -9.292,22.208Z" style="fill-rule:nonzero;"/></g></svg>