<?xml version="1.0" encoding="UTF-8" standalone="no"?><!DOCTYPE svg PUBLIC "-//W3C//DTD SVG 1.1//EN" "http://www.w3.org/Graphics/SVG/1.1/DTD/svg11.dtd"><svg width="100%" height="100%" viewBox="0 0 418 416" version="1.1" xmlns="http://www.w3.org/2000/svg" xmlns:xlink="http://www.w3.org/1999/xlink" xml:space="preserve" xmlns:serif="http://www.serif.com/" style="fill-rule:evenodd;clip-rule:evenodd;stroke-linejoin:round;stroke-miterlimit:2;"><g><path d="M348.292,335.333c-3.75,0 -6.792,3.042 -6.792,6.792c-0,3.75 3.042,6.792 6.792,6.792c3.75,-0 6.791,-3.042 6.791,-6.792c0,-3.75 -3.041,-6.792 -6.791,-6.792" style="fill-rule:nonzero;"/><path d="M79.25,245.583c0,2.584 -2.042,4.584 -4.583,4.584l-5.209,-0l0,-9.125l5.209,-0c2.541,-0 4.583,2.083 4.583,4.541" style="fill-rule:nonzero;"/><path d="M79.25,222.667c0,2.583 -2.042,4.583 -4.583,4.583l-5.209,-0l0,-9.167l5.209,0c2.541,0 4.583,2.084 4.583,4.542" style="fill-rule:nonzero;"/><path d="M338.458,245.583c0,2.584 2.084,4.584 4.584,4.584l5.25,-0l-0,-9.125l-5.25,-0c-2.5,-0 -4.584,2.083 -4.584,4.541" style="fill-rule:nonzero;"/><path d="M338.458,222.667c0,2.583 2.084,4.583 4.584,4.583l5.25,-0l-0,-9.167l-5.25,0c-2.5,0 -4.584,2.084 -4.584,4.542" style="fill-rule:nonzero;"/><path d="M396.5,345.25l-49.542,0l0,-7.333l42.167,-0l0,-110.834l-47.458,0l-0,-7.333l54.833,-0l0,125.5Zm-21.583,-26.708l-27.584,-0l0,-7.334l20.209,0l-0,-61.541l-25.209,-0l0,-7.334l32.584,0l-0,76.25l-0,-0.041Z" style="fill-rule:nonzero;"/><path d="M347.458,308.333c-3.791,0 -6.875,3.084 -6.875,6.834c0,3.75 3.084,6.833 6.875,6.833c3.792,-0 6.834,-3 6.834,-6.833c-0,-3.834 -3.042,-6.834 -6.834,-6.834" style="fill-rule:nonzero;"/><path d="M70.958,345.25l-49.458,0l-0,-125.458l54.667,-0l-0,7.333l-47.292,-0l0,110.792l42.083,-0l0,7.333Z" style="fill-rule:nonzero;"/><path d="M70.167,335.333c3.75,0 6.791,3.042 6.791,6.792c0,3.75 -3.041,6.792 -6.791,6.792c-3.75,-0 -6.792,-3.042 -6.792,-6.792c0,-3.75 3.042,-6.792 6.792,-6.792" style="fill-rule:nonzero;"/><path d="M70.667,318.333l-27.375,0l-0,-75.791l32.291,-0l0,7.333l-24.958,-0l0,61.125l20.042,0l-0,7.333Z" style="fill-rule:nonzero;"/><path d="M70.542,308.333c3.791,0 6.833,3.084 6.833,6.834c0,3.75 -3.083,6.833 -6.833,6.833c-3.75,-0 -6.875,-3 -6.875,-6.833c-0,-3.834 3.083,-6.834 6.875,-6.834" style="fill-rule:nonzero;"/><path d="M334.542,247.542l-11.167,-0l-0,-3.667l11.167,0l-0,3.667Zm-240.959,-0.125l-11.208,-0l-0,-3.667l11.208,0l0,3.667Zm237.209,-20.125l-3.667,-0l-0,-3.709l-3.75,0l-0,-3.666l3.75,-0l-0,-3.709l3.667,0l-0,3.709l3.75,-0l-0,3.666l-3.75,0l-0,3.709Zm-240.959,-0.125l-3.666,-0l-0,-3.667l-3.792,0l-0,-3.667l3.792,0l-0,-3.708l3.666,0l0,3.708l3.75,0l0,3.667l-3.75,0l0,3.667Z" style="fill-rule:nonzero;"/><path d="M236.292,243.417l-19.417,-0l-0,-20.584l19.417,0l-0,20.584Zm-12.042,-7.375l4.708,-0l0,-5.875l-4.708,-0l0,5.875Zm79.958,6.958l-19.416,-0l-0,-20.583l19.416,-0l0,20.583Zm-12.041,-7.333l4.666,-0l0,-5.875l-4.666,-0l-0,5.875Zm-22.417,7.333l-19.375,-0l0,-20.583l19.375,-0l0,20.583Zm-12,-7.333l4.667,-0l-0,-5.875l-4.667,-0l0,5.875Z" style="fill-rule:nonzero;"/><path d="M347.25,197.458c-2.042,0 -3.667,-1.666 -3.667,-3.666l0,-16.959l-23.291,7.667c-1.917,0.667 -4,-0.417 -4.625,-2.333c-0.625,-1.917 0.416,-4 2.333,-4.625l4.625,-1.542l-226.042,0l4.625,1.542c1.917,0.625 2.959,2.708 2.334,4.625c-0.625,1.916 -2.667,2.958 -4.625,2.333l-23.875,-7.833l-0,17.166c-0,2.042 -1.667,3.667 -3.667,3.667c-2,0 -3.667,-1.667 -3.667,-3.667l0,-43.041c0,-2.042 1.667,-3.667 3.667,-3.667c2,0 3.667,1.667 3.667,3.667l-0,17.208l23.875,-7.875c1.958,-0.625 4,0.417 4.625,2.333c0.625,1.917 -0.417,4 -2.334,4.625l-4.666,1.542l226.125,0l-4.667,-1.542c-1.917,-0.625 -2.958,-2.708 -2.333,-4.625c0.625,-1.916 2.708,-2.958 4.625,-2.333l23.291,7.667l0,-17.042c0,-2.042 1.667,-3.667 3.667,-3.667c2,0 3.667,1.667 3.667,3.667l-0,43.042c-0,2.041 -1.667,3.666 -3.667,3.666Z" style="fill-rule:nonzero;"/><path d="M353.292,263.625l-287.792,-0l0,-60.708l287.792,-0.5l-0,61.208Zm-280.459,-7.333l273.084,-0l-0,-46.5l-273.084,0.458l0,46.042Zm128.875,-12.5l-19.5,-0l0,-21.042l19.5,-0l0,21.042Zm-12.125,-7.334l4.792,0l-0,-6.333l-4.792,0.375l0,5.958Zm-21.166,7.334l-19.459,-0l0,-21.042l19.459,-0l-0,21.042Zm-12.125,-7.334l4.75,0l-0,-6.333l-4.75,0.375l-0,5.958Zm-22.584,7.334l-19.458,-0l-0,-21.042l19.458,-0l0,21.042Zm-12.125,-7.334l4.75,0l0,-6.333l-4.75,0.375l0,5.958Z" style="fill-rule:nonzero;"/></g></svg>